<svg width="51" height="11" viewBox="0 0 51 11" fill="none" xmlns="http://www.w3.org/2000/svg">
<path d="M5.028 8.224H0.792V1.396H1.836V3.928H3.984V1.384H5.028V4.276H6.228V0.592H7.236V10.324H6.228V5.152H5.028V8.224ZM9.312 10.84H8.292V0.352H9.312V10.84ZM3.984 7.36V4.78H1.836V7.36H3.984ZM19.8988 5.668L19.3228 6.508C17.6788 6.04 15.9388 4.708 15.4468 3.532C15.0268 4.72 13.2748 6.052 11.5708 6.496L11.0308 5.632C12.7468 5.332 14.9068 3.808 14.9068 2.044V1.228H15.9988V2.044C15.9988 3.796 18.2908 5.356 19.8988 5.668ZM20.1868 9.424H10.7188V8.56H20.1868V9.424ZM28.9736 4.456H23.1776V5.944H29.3096V6.82H22.1216V1.348H29.2136V2.212H23.1776V3.616H28.9736V4.456ZM30.4496 9.508H20.9816V8.644H30.4496V9.508ZM40.1004 5.884H39.0804V0.352H40.1004V5.884ZM38.1084 5.812H37.0884V3.328H35.6604V2.464H37.0884V0.543999H38.1084V5.812ZM40.4724 10.768H33.1164V8.128H39.0324V7.288H33.1164V6.424H40.0884V8.92H34.1724V9.892H40.4724V10.768ZM36.5004 4.768L35.9244 5.548C35.1804 5.176 34.2324 4.3 33.9324 3.532C33.6564 4.396 32.8644 5.332 31.8324 5.86L31.2084 5.104C32.4924 4.444 33.3924 3.316 33.3924 1.804V0.819999H34.4244V1.792C34.4244 3.304 35.4324 4.264 36.5004 4.768ZM50.0993 10.84H49.0433V5.26H47.2793V4.36H49.0433V0.352H50.0993V10.84ZM47.4713 7.192L47.5793 8.056C46.4873 8.26 44.7233 8.38 42.9473 8.38H41.8433V4.204H45.6233V2.164H41.8433V1.3H46.6793V5.068H42.8993V7.504C44.5433 7.504 46.1393 7.444 47.4713 7.192Z" fill="white"/>
</svg>
