<svg width="96" height="96" viewBox="0 0 96 96" fill="none" xmlns="http://www.w3.org/2000/svg">
<path id="Ellipse 28" d="M92.2352 56.2615L95.1842 56.8123L92.2352 56.2615ZM78.1524 81.4041L80.1625 83.6311L78.1524 81.4041ZM51.7038 92.8473L51.9507 95.8371L51.9507 95.8371L51.7038 92.8473ZM23.7363 85.8981L22.1187 88.4246L22.1187 88.4246L23.7363 85.8981ZM5.7196 63.4064L2.9009 64.4335L5.7196 63.4064ZM5.04263 34.5964L2.1788 33.7029L2.1788 33.7029L5.04263 34.5964ZM21.983 11.2834L23.7175 13.7312L23.7175 13.7312L21.983 11.2834ZM49.4871 6.02636C51.1429 6.08502 52.5327 4.79026 52.5914 3.13445C52.65 1.47864 51.3553 0.0887798 49.6995 0.0301211L49.4871 6.02636ZM85.4982 29.0821C89.6457 37.3031 90.9767 46.6593 89.2862 55.7108L95.1842 56.8123C97.1162 46.4678 95.5951 35.775 90.8551 26.3795L85.4982 29.0821ZM89.2862 55.7108C87.5957 64.7622 82.9775 73.0073 76.1422 79.1772L80.1625 83.6311C87.9742 76.5798 93.2522 67.1568 95.1842 56.8123L89.2862 55.7108ZM76.1422 79.1772C69.307 85.347 60.6336 89.0996 51.4569 89.8575L51.9507 95.8371C62.4384 94.971 72.3509 90.6823 80.1625 83.6311L76.1422 79.1772ZM51.4569 89.8575C42.2801 90.6153 33.1086 88.3364 25.3539 83.3715L22.1187 88.4246C30.9813 94.0988 41.463 96.7032 51.9507 95.8371L51.4569 89.8575ZM25.3539 83.3715C17.5991 78.4066 11.6908 71.0309 8.5383 62.3793L2.9009 64.4335C6.50375 74.321 13.2561 82.7504 22.1187 88.4246L25.3539 83.3715ZM8.5383 62.3793C5.3858 53.7278 5.1638 44.2801 7.90646 35.49L2.1788 33.7029C-0.955672 43.7486 -0.701958 54.5461 2.9009 64.4335L8.5383 62.3793ZM7.90646 35.49C10.6491 26.7 16.2044 19.0548 23.7175 13.7312L20.2485 8.83563C11.6622 14.9198 5.31327 23.6571 2.1788 33.7029L7.90646 35.49ZM23.7175 13.7312C31.2305 8.40751 40.2848 5.70036 49.4871 6.02636L49.6995 0.0301211C39.1827 -0.342452 28.8348 2.75144 20.2485 8.83563L23.7175 13.7312Z" fill="white"/>
</svg>
