<svg width="20" height="20" viewBox="0 0 20 20" fill="none" xmlns="http://www.w3.org/2000/svg">
<g id="mdi:heart">
<path id="Vector" d="M9.19566 16.248L9.19479 16.2472C7.03716 14.2907 5.2946 12.7071 4.08443 11.2265C2.88086 9.75404 2.26675 8.45691 2.26675 7.08333C2.26675 4.84042 4.01407 3.1 6.25008 3.1C7.5187 3.1 8.74622 3.69367 9.54478 4.6241L10.0001 5.15459L10.4554 4.6241C11.2539 3.69367 12.4815 3.1 13.7501 3.1C15.9861 3.1 17.7334 4.84042 17.7334 7.08333C17.7334 8.45691 17.1193 9.75404 15.9157 11.2265C14.7056 12.7071 12.963 14.2907 10.8054 16.2472L10.8045 16.248L10.0001 16.9803L9.19566 16.248Z" fill="white" stroke="#406CEA" stroke-width="1.2"/>
</g>
</svg>
