<svg width="22" height="22" viewBox="0 0 22 22" fill="none" xmlns="http://www.w3.org/2000/svg">
<path fill-rule="evenodd" clip-rule="evenodd" d="M12.9968 2.2944C14.7563 2.81649 16.2727 3.87595 17.3413 5.2748C17.6877 5.0993 18.0819 5.00002 18.5 5.00002C19.8807 5.00002 21 6.08241 21 7.4176C21 8.59003 20.137 9.56752 18.9918 9.78843C18.9972 9.90957 19 10.0314 19 10.1538C19 10.8964 18.8982 11.6159 18.7073 12.3001C19.478 12.7119 20 13.5058 20 14.4176C20 15.7528 18.8807 16.8352 17.5 16.8352C16.9573 16.8352 16.4549 16.6679 16.0451 16.3838C15.3758 16.9414 14.6157 17.3999 13.7891 17.7356L14.8046 20.6733C15.0291 21.3228 14.5466 22 13.8594 22H7.14056C6.45335 22 5.97093 21.3228 6.19543 20.6733L7.21085 17.7356C6.4708 17.435 5.78402 17.036 5.168 16.5556C4.8194 16.7341 4.4219 16.8352 4 16.8352C2.61929 16.8352 1.5 15.7528 1.5 14.4176C1.5 13.6818 1.8399 13.0228 2.37613 12.5794C2.13163 11.8127 2 10.9981 2 10.1538C2 9.89234 2.01263 9.63368 2.03733 9.37842C1.40892 8.93929 1 8.22462 1 7.41758C1 6.08239 2.11929 5 3.5 5C3.62142 5 3.74082 5.00837 3.85762 5.02455C4.91174 3.74966 6.35018 2.78489 8.00319 2.2944C8.06951 1.01645 9.16201 0 10.5 0C11.838 0 12.9305 1.01645 12.9968 2.2944ZM7.53779 16.7897C6.97527 16.5568 6.44901 16.2596 5.96855 15.908C6.30149 15.4973 6.5 14.9799 6.5 14.4176C6.5 14.193 6.46834 13.9756 6.40909 13.7693L9.17646 12.0489L7.53779 16.7897ZM11.7952 11.9669L13.4622 16.7897C14.1534 16.5035 14.7899 16.1202 15.3539 15.6583C15.1292 15.2956 15 14.8712 15 14.4176C15 14.2273 15.0227 14.0422 15.0657 13.8646L11.7952 11.9669ZM15.5034 12.9624C15.9598 12.3778 16.6843 12 17.5 12C17.5838 12 17.6667 12.004 17.7485 12.0118C17.9126 11.418 18 10.795 18 10.1538C18 10.0302 17.9967 9.90716 17.9903 9.7849C17.2039 9.62739 16.5527 9.11267 16.2262 8.42401L16.2127 8.43058L16.1916 8.44074L16.1706 8.45089L16.1496 8.46105L16.0656 8.50169L16.0446 8.51186L16.0235 8.52202L15.9815 8.54235L15.9605 8.55251L15.9395 8.56267L15.8974 8.58299L15.8764 8.59315L15.8554 8.60331L15.8344 8.61347L15.8134 8.62363L15.7294 8.66425L15.6454 8.70484L15.6245 8.71498L15.6035 8.72512L15.5616 8.74539L15.5197 8.76565L15.4778 8.78589L15.436 8.80612L15.3942 8.82634L15.3106 8.86672L15.2689 8.88688L15.2481 8.89696L15.2273 8.90703L15.2065 8.91709L15.1857 8.92715L15.1441 8.94725L14.9783 9.0274L14.937 9.04737L14.8958 9.06732L14.8752 9.07728L14.8546 9.08723L14.834 9.09717L14.8135 9.10711L14.7314 9.14678L14.711 9.15667L14.6905 9.16656L14.6701 9.17643L14.6497 9.1863L14.4871 9.2649L14.4467 9.28444L14.4265 9.2942L14.4064 9.30395L14.3862 9.31369L14.3661 9.32341L14.346 9.33312L14.326 9.34283L14.3059 9.35252L14.2859 9.3622L14.2659 9.37186L14.2459 9.38152L14.226 9.39116L14.2061 9.40079L14.1663 9.42002L14.1465 9.42961L14.1267 9.43919L14.1069 9.44876L14.0871 9.45831L14.0674 9.46785L14.0477 9.47738L14.0084 9.49639L13.9691 9.51535L13.9496 9.52481L13.9301 9.53425L13.9106 9.54368L13.8911 9.5531L13.8716 9.5625L13.8522 9.57188L13.7749 9.60927L13.7556 9.61858L13.7364 9.62788L13.7172 9.63715L13.6981 9.64642L13.679 9.65566L13.6599 9.66489L13.6218 9.6833L13.5461 9.71991L13.5272 9.72902L13.5084 9.73812L13.4897 9.74719L13.4709 9.75625L13.4336 9.77431L13.3964 9.7923L13.3593 9.81022L13.3408 9.81915L13.3224 9.82806L13.2491 9.86352L13.1764 9.89866L13.1403 9.91611L13.1223 9.9248L13.1044 9.93348L13.0331 9.96796L12.9977 9.98508L12.98 9.9936L12.9624 10.0021L12.9449 10.0106L12.9274 10.019L12.8926 10.0359L12.8234 10.0693L12.8062 10.0776L12.7891 10.0859L12.772 10.0942L12.755 10.1024L12.7211 10.1188L12.7042 10.127L12.6874 10.1351L12.6206 10.1674L12.5546 10.1993L12.4894 10.2308L12.4251 10.2619L12.2992 10.3228L12.1769 10.3819L12.1469 10.3964L12.1172 10.4108L12.0877 10.4251L12.073 10.4322L12.0584 10.4392L11.9439 10.4946L11.9159 10.5082L11.902 10.5149L11.8881 10.5216L11.8334 10.548L11.7798 10.5739L11.7666 10.5803L11.7534 10.5867L11.7273 10.5993L11.6758 10.6242L11.6255 10.6485L11.6131 10.6545L11.6008 10.6605L11.5885 10.6664L11.5763 10.6723L11.5655 10.6775L15.5034 12.9624ZM16 7.42264C16 7.42096 16 7.41928 16 7.4176C16 6.84119 16.2086 6.31189 16.5568 5.89645C15.6412 4.6902 14.3455 3.76471 12.8326 3.28917C12.5292 4.04795 11.8413 4.62166 11 4.7868V9.84022L11.093 9.79525L11.1169 9.78372L11.1289 9.77789L11.141 9.77204L11.1532 9.76614L11.1655 9.76022L11.1778 9.75425L11.1902 9.74826L11.292 9.69906L11.3445 9.67365L11.3981 9.64772L11.4253 9.63457L11.4528 9.62128L11.4667 9.61459L11.4806 9.60787L11.4945 9.60111L11.5086 9.59433L11.6231 9.53895L11.7416 9.48166L11.8639 9.42252L11.8794 9.415L11.895 9.40746L11.9264 9.39229L11.9422 9.38466L11.958 9.37701L11.9739 9.36933L11.9898 9.36162L12.1193 9.29903L12.2521 9.23482L12.3881 9.16906L12.4226 9.15238L12.4573 9.13562L12.4921 9.11877L12.5096 9.11031L12.5271 9.10182L12.5978 9.06768L12.6691 9.03319L12.705 9.01582L12.7411 8.99837L12.7592 8.98962L12.7774 8.98084L12.7955 8.97205L12.8138 8.96323L12.8504 8.94554L12.8871 8.92778L12.9055 8.91887L12.924 8.90994L12.9425 8.90099L12.9611 8.89202L12.9983 8.87403L13.0356 8.85597L13.0544 8.84691L13.0731 8.83783L13.0919 8.82874L13.1108 8.81963L13.1865 8.78301L13.2628 8.74613L13.3011 8.72759L13.3396 8.70899L13.4169 8.6716L13.4363 8.66222L13.4558 8.65281L13.4948 8.63397L13.5143 8.62453L13.5338 8.61507L13.5731 8.59611L13.6124 8.5771L13.6518 8.55803L13.6914 8.53891L13.731 8.51973L13.8106 8.48123L13.8907 8.44254L14.0518 8.36461L14.0923 8.34502L14.1329 8.32539L14.2144 8.28602L14.2348 8.27615L14.2552 8.26627L14.2757 8.25639L14.2961 8.24649L14.3371 8.22668L14.3782 8.20683L14.3987 8.19689L14.4193 8.18695L14.4399 8.17699L14.4605 8.16703L14.4811 8.15707L14.5017 8.14709L14.543 8.12712L14.5844 8.10712L14.6051 8.09711L14.6258 8.08709L14.6465 8.07707L14.6673 8.06704L14.7088 8.04696L14.7504 8.02686L14.7712 8.01681L14.792 8.00674L14.8128 7.99667L14.8336 7.9866L14.8545 7.97652L14.8753 7.96644L14.8962 7.95635L14.9171 7.94625L14.938 7.93616L14.9589 7.92605L15.0007 7.90584L15.0425 7.88561L15.0634 7.87549L15.0844 7.86536L15.1263 7.8451L15.1472 7.83497L15.1682 7.82483L15.2101 7.80455L15.2941 7.76397L15.3781 7.72335L15.3991 7.71319L15.4201 7.70303L15.4411 7.69287L15.4621 7.68271L15.5042 7.66239L15.5462 7.64206L15.5882 7.62174L15.6303 7.60141L15.6723 7.58109L15.6933 7.57093L15.7143 7.56077L15.7353 7.55061L15.7563 7.54045L15.7773 7.5303L15.7984 7.52014L15.8193 7.50999L15.8403 7.49984L15.8613 7.48969L15.8823 7.47954L15.9243 7.45926L15.9662 7.43898L15.9872 7.42884L16 7.42264ZM10 4.7868V9.8169L5.97763 7.74237C5.99238 7.63614 6 7.52772 6 7.41758C6 6.56899 5.54788 5.82252 4.86389 5.39114C5.73817 4.43187 6.87335 3.69592 8.1674 3.28917C8.47079 4.04795 9.15869 4.62166 10 4.7868ZM5.62793 8.68717L9.48777 10.6779L5.9349 12.8866C5.47643 12.3454 4.77992 12 4 12C3.74871 12 3.50609 12.0359 3.27729 12.1026C3.09651 11.4816 3 10.8277 3 10.1538C3 10.0314 3.00319 9.90966 3.00948 9.78864C3.16809 9.81916 3.33212 9.83517 3.5 9.83517C4.39916 9.83517 5.18744 9.37613 5.62793 8.68717Z" fill="white"/>
</svg>
