<svg width="20" height="20" viewBox="0 0 20 20" fill="none" xmlns="http://www.w3.org/2000/svg">
<g id="Property 1=ic_bus">
<path id="Vector" d="M14.7362 9.10526H5.26254V5.15789H14.7362M13.552 13.8421C13.2379 13.8421 12.9367 13.7173 12.7147 13.4953C12.4926 13.2732 12.3678 12.972 12.3678 12.6579C12.3678 12.3438 12.4926 12.0426 12.7147 11.8205C12.9367 11.5984 13.2379 11.4737 13.552 11.4737C13.8661 11.4737 14.1673 11.5984 14.3894 11.8205C14.6115 12.0426 14.7362 12.3438 14.7362 12.6579C14.7362 12.972 14.6115 13.2732 14.3894 13.4953C14.1673 13.7173 13.8661 13.8421 13.552 13.8421ZM6.44675 13.8421C6.13268 13.8421 5.83147 13.7173 5.60939 13.4953C5.38731 13.2732 5.26254 12.972 5.26254 12.6579C5.26254 12.3438 5.38731 12.0426 5.60939 11.8205C5.83147 11.5984 6.13268 11.4737 6.44675 11.4737C6.76082 11.4737 7.06203 11.5984 7.28412 11.8205C7.5062 12.0426 7.63096 12.3438 7.63096 12.6579C7.63096 12.972 7.5062 13.2732 7.28412 13.4953C7.06203 13.7173 6.76082 13.8421 6.44675 13.8421ZM3.68359 13.0526C3.68359 13.7474 3.99149 14.3711 4.47307 14.8053V16.2105C4.47307 16.4199 4.55624 16.6207 4.7043 16.7688C4.85235 16.9168 5.05316 17 5.26254 17H6.05201C6.2614 17 6.4622 16.9168 6.61026 16.7688C6.75831 16.6207 6.84149 16.4199 6.84149 16.2105V15.4211H13.1573V16.2105C13.1573 16.4199 13.2405 16.6207 13.3885 16.7688C13.5366 16.9168 13.7374 17 13.9468 17H14.7362C14.9456 17 15.1464 16.9168 15.2945 16.7688C15.4425 16.6207 15.5257 16.4199 15.5257 16.2105V14.8053C16.0073 14.3711 16.3152 13.7474 16.3152 13.0526V5.15789C16.3152 2.39474 13.4889 2 9.99938 2C6.50991 2 3.68359 2.39474 3.68359 5.15789V13.0526Z" fill="white"/>
</g>
</svg>
