<svg width="20" height="20" viewBox="0 0 20 20" fill="none" xmlns="http://www.w3.org/2000/svg">
<path d="M3.65674 10.715C3.65674 10.6607 3.65674 10.6332 3.65815 10.6107C3.66925 10.4399 3.7421 10.279 3.8631 10.158C3.9841 10.037 4.14498 9.96417 4.31574 9.95307C4.339 9.95166 4.36507 9.95166 4.42005 9.95166H15.58C15.6343 9.95166 15.6611 9.95166 15.6843 9.95307C15.8551 9.96417 16.016 10.037 16.137 10.158C16.258 10.279 16.3308 10.4399 16.3419 10.6107C16.3433 10.6332 16.3433 10.66 16.3433 10.715C16.3433 10.9934 16.3433 11.1329 16.3335 11.2894C16.1862 13.6061 14.2169 15.6515 11.9073 15.8848C11.7515 15.901 11.6606 15.9045 11.4787 15.9115C10.9861 15.931 10.4931 15.9413 10 15.9426C9.54191 15.9426 9.03868 15.9306 8.52135 15.9115C8.33951 15.9045 8.24858 15.901 8.09353 15.8855C5.78315 15.6515 3.81391 13.6061 3.66731 11.2894C3.65674 11.1329 3.65674 10.9934 3.65674 10.715Z" stroke="#1B3041" stroke-width="1.05722"/>
<path d="M5.77115 15.5902L5.06634 16.9998M14.2289 15.5902L14.9337 16.9998M2.9519 9.95166H17.0481" stroke="#1B3041" stroke-width="1.05722" stroke-linecap="round"/>
<path d="M3.12805 10.6565C3.12805 10.7967 3.18374 10.9312 3.28288 11.0303C3.38201 11.1295 3.51646 11.1851 3.65666 11.1851C3.79686 11.1851 3.93131 11.1295 4.03044 11.0303C4.12958 10.9312 4.18527 10.7967 4.18527 10.6565H3.12805ZM6.01496 7.65545L5.523 7.84927C5.54902 7.91506 5.58799 7.97495 5.63758 8.0254C5.68718 8.07586 5.7464 8.11584 5.81173 8.14298C5.87706 8.17013 5.94718 8.18388 6.01792 8.18343C6.08867 8.18298 6.1586 8.16833 6.22358 8.14036L6.01496 7.65545ZM10.2156 5.8462L10.425 6.33252C10.5511 6.27818 10.6512 6.17687 10.7039 6.05005C10.7567 5.92323 10.758 5.78085 10.7076 5.65308L10.2156 5.8462ZM4.18527 10.6565V4.58458H3.12805V10.6565H4.18527ZM5.33764 3.43222C5.80915 3.43222 6.23275 3.71908 6.40754 4.15676L7.38934 3.76348C7.2254 3.3535 6.9424 3.00275 6.57682 2.75514C6.21125 2.50753 5.77988 2.37513 5.33834 2.375L5.33764 3.43222ZM4.18527 4.58458C4.18527 3.94814 4.70119 3.43222 5.33764 3.43222L5.33834 2.375C4.75232 2.375 4.1896 2.60779 3.77522 3.02217C3.36085 3.43655 3.12805 3.99857 3.12805 4.58458H4.18527ZM6.40754 4.15676L6.67537 4.82492L7.65647 4.43234L7.38934 3.76348L6.40754 4.15676ZM6.50621 7.46162C6.32899 7.00974 6.33252 6.50698 6.51608 6.05764L5.53639 5.65942C5.2505 6.36045 5.24616 7.14462 5.523 7.84927L6.50621 7.46162ZM10.007 5.36129L5.80563 7.16983L6.22358 8.14036L10.4243 6.33181L10.007 5.36129ZM8.7891 5.06597C9.22749 5.25345 9.55382 5.60797 9.72438 6.04002L10.7076 5.65308C10.5733 5.30641 10.3712 4.98929 10.1132 4.72161C9.85518 4.45392 9.54642 4.24034 9.20494 4.09333L8.7891 5.06597ZM6.51608 6.05764C6.68169 5.64157 6.99555 5.30229 7.3971 5.10403L6.93474 4.15394C6.29872 4.46589 5.80063 5.00215 5.53639 5.65942L6.51608 6.05764ZM7.3971 5.10403C7.61264 4.99759 7.84869 4.93912 8.089 4.93268C8.32931 4.92623 8.56816 4.97124 8.7891 5.06597L9.20494 4.09333C8.84455 3.93919 8.45512 3.86544 8.06329 3.87578C7.67146 3.88612 7.28649 3.98101 6.93474 4.15394L7.3971 5.10403Z" fill="#1B3041"/>
</svg>
