<svg width="20" height="20" viewBox="0 0 20 20" fill="none" xmlns="http://www.w3.org/2000/svg">
<path d="M15 9H8.5V12.7693H7.80769V11.4881C7.80688 10.7622 7.51816 10.0662 7.00485 9.55288C6.49155 9.03956 5.79559 8.75082 5.06966 8.75H3.5V6.75H2.5V17.5H3.5V16.008L16.5 16.112V17.5H17.5V11.5C17.4993 10.8372 17.2356 10.2017 16.7669 9.73306C16.2983 9.26438 15.6628 9.00074 15 9ZM3.5 9.75H5.06966C5.53045 9.75052 5.97222 9.9338 6.29805 10.2596C6.62389 10.5855 6.80717 11.0272 6.80769 11.488V12.7693H3.5V9.75ZM16.5 15.112L3.5 15.008V13.7693H16.5V15.112ZM16.5 12.7693H9.5V10H15C15.3977 10.0005 15.779 10.1586 16.0602 10.4398C16.3414 10.721 16.4995 11.1023 16.5 11.5V12.7693Z" fill="#1B3041"/>
</svg>
