<svg width="20" height="20" viewBox="0 0 20 20" fill="none" xmlns="http://www.w3.org/2000/svg">
<path d="M13.85 3V4.4M5.45 3V4.4M8.985 17C6.164 17 4.7528 17 3.8764 16.0522C3 15.1051 3 13.5798 3 10.5292V10.1701C3 7.1202 3 5.5949 3.8764 4.6471C4.7528 3.7 6.164 3.7 8.985 3.7H10.315C13.136 3.7 14.5472 3.7 15.4236 4.6478C16.2489 5.5396 16.2972 6.9438 16.3 9.65V10.7" stroke="#878586" stroke-width="1.05" stroke-linecap="round" stroke-linejoin="round"/>
<path d="M3.34961 7.19995H15.9496" stroke="#878586" stroke-width="1.05" stroke-linecap="round" stroke-linejoin="round"/>
<path d="M16.5996 13.8499L10.9996 13.8499M16.5996 13.8499C16.5996 13.3599 15.2038 12.4436 14.8496 12.0999M16.5996 13.8499C16.5996 14.3399 15.2038 15.2555 14.8496 15.5999" stroke="#878586" stroke-width="1.05" stroke-linecap="round" stroke-linejoin="round"/>
</svg>
