<svg width="20" height="20" viewBox="0 0 20 20" fill="none" xmlns="http://www.w3.org/2000/svg">
<path d="M15.5 15H4.5C4.35 15 4.2 14.9 4.1 14.8C4 14.7 4 14.5 4.05 14.35L5 11.95L4.05 3H1V2H4.5C4.75 2 4.95 2.2 5 2.45L6 11.95C6 12.05 6 12.1 5.95 12.2L5.25 14H16L15.5 15Z" fill="#506CE7"/>
<path d="M5.6 12.5L5.4 11.5L17 9.1V5H5V4H17.5C17.8 4 18 4.2 18 4.5V9.5C18 9.75 17.85 9.95 17.6 10L5.6 12.5ZM16 18C14.9 18 14 17.1 14 16C14 14.9 14.9 14 16 14C17.1 14 18 14.9 18 16C18 17.1 17.1 18 16 18ZM16 15C15.45 15 15 15.45 15 16C15 16.55 15.45 17 16 17C16.55 17 17 16.55 17 16C17 15.45 16.55 15 16 15ZM4 18C2.9 18 2 17.1 2 16C2 14.9 2.9 14 4 14C5.1 14 6 14.9 6 16C6 17.1 5.1 18 4 18ZM4 15C3.45 15 3 15.45 3 16C3 16.55 3.45 17 4 17C4.55 17 5 16.55 5 16C5 15.45 4.55 15 4 15Z" fill="#506CE7"/>
</svg>
