<svg width="20" height="20" viewBox="0 0 20 20" fill="none" xmlns="http://www.w3.org/2000/svg">
<g id="Property 1=ic_car">
<path id="Vector" d="M17.0176 7.72399L15.9232 4.44079C15.7644 3.96277 15.4591 3.54695 15.0505 3.25239C14.6419 2.95784 14.1509 2.79954 13.6472 2.79999H6.3528C5.84911 2.79954 5.35809 2.95784 4.94951 3.25239C4.54092 3.54695 4.23556 3.96277 4.0768 4.44079L2.9824 7.72399C2.69138 7.84576 2.44285 8.05085 2.26805 8.31347C2.09326 8.57609 2 8.88452 2 9.19999V13.2C2 13.7904 2.3232 14.3008 2.8 14.5784V16.4C2.8 16.6122 2.88429 16.8156 3.03431 16.9657C3.18434 17.1157 3.38783 17.2 3.6 17.2H4.4C4.61217 17.2 4.81566 17.1157 4.96569 16.9657C5.11571 16.8156 5.2 16.6122 5.2 16.4V14.8H14.8V16.4C14.8 16.6122 14.8843 16.8156 15.0343 16.9657C15.1843 17.1157 15.3878 17.2 15.6 17.2H16.4C16.6122 17.2 16.8157 17.1157 16.9657 16.9657C17.1157 16.8156 17.2 16.6122 17.2 16.4V14.5784C17.4427 14.4392 17.6445 14.2385 17.7849 13.9965C17.9254 13.7545 17.9995 13.4798 18 13.2V9.19999C18 8.88452 17.9067 8.57609 17.7319 8.31347C17.5572 8.05085 17.3086 7.84576 17.0176 7.72399ZM6.3528 4.39999H13.6464C13.9912 4.39999 14.2968 4.61919 14.4056 4.94719L15.2904 7.59999H4.7096L5.5936 4.94719C5.64668 4.78782 5.74857 4.64921 5.88484 4.55099C6.02111 4.45278 6.18483 4.39995 6.3528 4.39999ZM4.8 12.4C4.64236 12.3999 4.48628 12.3688 4.34066 12.3085C4.19504 12.2481 4.06274 12.1596 3.95131 12.0481C3.83988 11.9366 3.7515 11.8043 3.69122 11.6586C3.63094 11.5129 3.59995 11.3568 3.6 11.1992C3.60005 11.0415 3.63115 10.8855 3.69153 10.7398C3.7519 10.5942 3.84037 10.4619 3.95187 10.3505C4.06338 10.2391 4.19574 10.1507 4.3414 10.0904C4.48706 10.0301 4.64316 9.99914 4.8008 9.99919C5.11917 9.99929 5.42445 10.1259 5.64949 10.3511C5.87454 10.5763 6.00091 10.8816 6.0008 11.2C6.00069 11.5184 5.87412 11.8236 5.64893 12.0487C5.42373 12.2737 5.11837 12.4001 4.8 12.4ZM15.2 12.4C15.0424 12.3999 14.8863 12.3688 14.7407 12.3085C14.595 12.2481 14.4627 12.1596 14.3513 12.0481C14.2399 11.9366 14.1515 11.8043 14.0912 11.6586C14.0309 11.5129 13.9999 11.3568 14 11.1992C14.0001 11.0415 14.0312 10.8855 14.0915 10.7398C14.1519 10.5942 14.2404 10.4619 14.3519 10.3505C14.4634 10.2391 14.5957 10.1507 14.7414 10.0904C14.8871 10.0301 15.0432 9.99914 15.2008 9.99919C15.5192 9.99929 15.8244 10.1259 16.0495 10.3511C16.2745 10.5763 16.4009 10.8816 16.4008 11.2C16.4007 11.5184 16.2741 11.8236 16.0489 12.0487C15.8237 12.2737 15.5184 12.4001 15.2 12.4Z" fill="white"/>
</g>
</svg>
