<svg width="20" height="20" viewBox="0 0 20 20" fill="none" xmlns="http://www.w3.org/2000/svg">
<path d="M6.30039 3V4.4M14.7004 3V4.4M11.1654 17C13.9864 17 15.3976 17 16.274 16.0522C17.1504 15.1051 17.1504 13.5798 17.1504 10.5292V10.1701C17.1504 7.1202 17.1504 5.5949 16.274 4.6471C15.3976 3.7 13.9864 3.7 11.1654 3.7H9.83539C7.01439 3.7 5.60319 3.7 4.72679 4.6478C3.90149 5.5396 3.85319 6.9438 3.85039 9.65V10.7" stroke="#878586" stroke-width="1.05" stroke-linecap="round" stroke-linejoin="round"/>
<path d="M9.77778 14.125H4M9.77778 14.125C9.77778 14.65 8.33767 15.6318 7.97222 16M9.77778 14.125C9.77778 13.6 8.33767 12.619 7.97222 12.25M17 7H4" stroke="#878586" stroke-width="1.05" stroke-linecap="round" stroke-linejoin="round"/>
</svg>
