<svg width="20" height="20" viewBox="0 0 20 20" fill="none" xmlns="http://www.w3.org/2000/svg">
<path fill-rule="evenodd" clip-rule="evenodd" d="M13.0107 3.70032C13.4563 3.70033 13.8931 3.82442 14.2722 4.05868C14.6513 4.29293 14.9576 4.62811 15.157 5.02666L16.2657 7.24335C16.4609 7.16335 16.6529 7.07696 16.8417 6.98416C17.0316 6.88933 17.2514 6.87381 17.4527 6.94102C17.654 7.00822 17.8204 7.15266 17.9153 7.34255C18.0101 7.53243 18.0256 7.75221 17.9584 7.95354C17.8912 8.15487 17.7468 8.32126 17.5569 8.4161C17.3646 8.50167 17.1712 8.58488 16.9769 8.66568L17.7457 10.204C17.9125 10.5376 17.9993 10.9054 17.9992 11.2784V13.2999C17.9992 13.6375 17.928 13.9714 17.7901 14.2796C17.6523 14.5878 17.451 14.8635 17.1993 15.0886V16.0997C17.1993 16.418 17.0729 16.7232 16.8478 16.9482C16.6228 17.1733 16.3176 17.2997 15.9993 17.2997C15.6811 17.2997 15.3759 17.1733 15.1509 16.9482C14.9258 16.7232 14.7994 16.418 14.7994 16.0997V15.6998H5.19985V16.0997C5.19985 16.418 5.07343 16.7232 4.84839 16.9482C4.62336 17.1733 4.31815 17.2997 3.99991 17.2997C3.68166 17.2997 3.37645 17.1733 3.15142 16.9482C2.92638 16.7232 2.79996 16.418 2.79996 16.0997V15.0886C2.30879 14.6486 2 14.0102 2 13.2999V11.2776C2.00015 10.9051 2.08697 10.5379 2.25359 10.2048L3.01595 8.67848C2.82289 8.59742 2.63224 8.51022 2.44398 8.4169C2.25505 8.32083 2.11144 8.15437 2.0441 7.9534C1.97677 7.75243 1.99109 7.53305 2.084 7.34255C2.13092 7.24849 2.19592 7.16461 2.27528 7.09569C2.35464 7.02677 2.4468 6.97417 2.5465 6.94088C2.6462 6.9076 2.75149 6.89429 2.85633 6.90172C2.96118 6.90914 3.06353 6.93716 3.15755 6.98416C3.34687 7.07749 3.53886 7.16389 3.73352 7.24335L4.84227 5.02745C5.0415 4.62876 5.34782 4.29342 5.7269 4.05902C6.10599 3.82461 6.54286 3.70041 6.98857 3.70032H13.0107ZM6.39979 10.9C6.08155 10.9 5.77634 11.0264 5.5513 11.2514C5.32627 11.4765 5.19985 11.7817 5.19985 12.0999C5.19985 12.4182 5.32627 12.7234 5.5513 12.9484C5.77634 13.1734 6.08155 13.2999 6.39979 13.2999C6.71804 13.2999 7.02325 13.1734 7.24828 12.9484C7.47331 12.7234 7.59974 12.4182 7.59974 12.0999C7.59974 11.7817 7.47331 11.4765 7.24828 11.2514C7.02325 11.0264 6.71804 10.9 6.39979 10.9ZM13.5995 10.9C13.2812 10.9 12.976 11.0264 12.751 11.2514C12.5259 11.4765 12.3995 11.7817 12.3995 12.0999C12.3995 12.4182 12.5259 12.7234 12.751 12.9484C12.976 13.1734 13.2812 13.2999 13.5995 13.2999C13.9177 13.2999 14.2229 13.1734 14.4479 12.9484C14.673 12.7234 14.7994 12.4182 14.7994 12.0999C14.7994 11.7817 14.673 11.4765 14.4479 11.2514C14.2229 11.0264 13.9177 10.9 13.5995 10.9ZM13.0107 5.30024H6.98857C6.8569 5.30022 6.72726 5.3327 6.61116 5.3948C6.49505 5.4569 6.39607 5.5467 6.323 5.65623L6.2734 5.74262L5.25745 7.77293C6.49579 8.14411 8.16451 8.50009 9.99962 8.50009C11.7131 8.50009 13.2803 8.18971 14.4874 7.84652L14.741 7.77293L13.7259 5.74262C13.667 5.62488 13.58 5.52349 13.4725 5.44743C13.3651 5.37138 13.2405 5.32302 13.1099 5.30664L13.0115 5.30024H13.0107Z" fill="white"/>
</svg>
