<svg width="24" height="24" viewBox="0 0 24 24" fill="none" xmlns="http://www.w3.org/2000/svg">
<path fill-rule="evenodd" clip-rule="evenodd" d="M2 3H3.93248C4.7408 3 5.44396 3.55362 5.63362 4.33938L5.96683 5.71982H19.7023C20.8706 5.71982 21.7108 6.84277 21.3811 7.96361L19.7029 13.6698C19.4838 14.4145 18.8003 14.926 18.024 14.926H8.18901L8.43726 15.9544C8.46435 16.0667 8.5648 16.1458 8.68028 16.1458H18.7722V17.6458H18.1901C18.552 18.0474 18.7722 18.5791 18.7722 19.1623C18.7722 20.4141 17.7575 21.4288 16.5057 21.4288C15.2539 21.4288 14.2392 20.4141 14.2392 19.1623C14.2392 18.5791 14.4594 18.0474 14.8212 17.6458H11.8439C12.2057 18.0474 12.426 18.5791 12.426 19.1623C12.426 20.4141 11.4112 21.4288 10.1595 21.4288C8.90769 21.4288 7.89294 20.4141 7.89294 19.1623C7.89294 18.5739 8.11718 18.0378 8.48486 17.6349C7.7607 17.554 7.15334 17.0281 6.97914 16.3064L6.50737 14.3519L4.64726 6.6458L4.1755 4.69134C4.1484 4.57909 4.04795 4.5 3.93248 4.5H2V3ZM7.82694 13.426H18.024C18.1349 13.426 18.2325 13.3529 18.2638 13.2465L19.9421 7.54036C19.9892 7.38024 19.8692 7.21982 19.7023 7.21982H6.3289L7.82694 13.426ZM10.1595 19.9288C10.5828 19.9288 10.926 19.5856 10.926 19.1623C10.926 18.739 10.5828 18.3958 10.1595 18.3958C9.73612 18.3958 9.39294 18.739 9.39294 19.1623C9.39294 19.5856 9.73612 19.9288 10.1595 19.9288ZM17.2722 19.1623C17.2722 19.5856 16.929 19.9288 16.5057 19.9288C16.0824 19.9288 15.7392 19.5856 15.7392 19.1623C15.7392 18.739 16.0824 18.3958 16.5057 18.3958C16.929 18.3958 17.2722 18.739 17.2722 19.1623Z" fill="#1F2427"/>
</svg>
