<svg width="18" height="16" viewBox="0 0 18 16" fill="none" xmlns="http://www.w3.org/2000/svg">
<path d="M3.97078 1.61334C3.40545 1.76475 2.88995 2.06234 2.47611 2.47617C2.06227 2.89001 1.76469 3.40551 1.61328 3.97084M14.0291 1.61334C14.5944 1.76475 15.1099 2.06234 15.5238 2.47617C15.9376 2.89001 16.2352 3.40551 16.3866 3.97084" stroke="#1F2427" stroke-width="2" stroke-linecap="round"/>
<path fill-rule="evenodd" clip-rule="evenodd" d="M8.99992 15.6667C10.768 15.6667 12.4637 14.9643 13.714 13.7141C14.9642 12.4638 15.6666 10.7681 15.6666 9.00001C15.6666 7.2319 14.9642 5.53621 13.714 4.28596C12.4637 3.03572 10.768 2.33334 8.99992 2.33334C7.23181 2.33334 5.53612 3.03572 4.28587 4.28596C3.03563 5.53621 2.33325 7.2319 2.33325 9.00001C2.33325 10.7681 3.03563 12.4638 4.28587 13.7141C5.53612 14.9643 7.23181 15.6667 8.99992 15.6667ZM9.83325 5.66668C9.83325 5.44566 9.74545 5.2337 9.58917 5.07742C9.43289 4.92114 9.22093 4.83334 8.99992 4.83334C8.7789 4.83334 8.56694 4.92114 8.41066 5.07742C8.25438 5.2337 8.16658 5.44566 8.16658 5.66668V8.79168C8.16658 9.36668 8.63325 9.83334 9.20825 9.83334H11.4999C11.7209 9.83334 11.9329 9.74555 12.0892 9.58927C12.2455 9.43299 12.3333 9.22102 12.3333 9.00001C12.3333 8.779 12.2455 8.56703 12.0892 8.41075C11.9329 8.25447 11.7209 8.16668 11.4999 8.16668H9.83325V5.66668Z" fill="#1F2427"/>
</svg>
