<svg width="16" height="16" viewBox="0 0 16 16" fill="none" xmlns="http://www.w3.org/2000/svg">
<path d="M8.00099 3.91071C8.68657 3.30238 9.58095 2.97748 10.5005 3.00271C11.42 3.02794 12.2949 3.40139 12.9455 4.04637C13.5955 4.6909 13.9722 5.55759 13.9985 6.46878C14.0248 7.37997 13.6988 8.26664 13.0871 8.94702L7.99979 14L2.91366 8.94702C2.3013 8.26629 1.97491 7.37886 2.00151 6.46694C2.0281 5.55501 2.40567 4.68778 3.05668 4.0433C3.7077 3.39881 4.58277 3.02596 5.50224 3.00131C6.42171 2.97665 7.31582 3.30205 8.00099 3.91071ZM12.0961 4.88715C11.6625 4.45788 11.0799 4.20931 10.4675 4.19238C9.85515 4.17545 9.25946 4.39145 8.80249 4.79611L8.00159 5.50895L7.2001 4.7967C6.74516 4.39321 6.15231 4.1768 5.5422 4.19151C4.93208 4.20623 4.35054 4.45095 3.91591 4.8759C3.48128 5.30084 3.22622 5.87407 3.20263 6.47894C3.17905 7.08381 3.38871 7.67487 3.78895 8.13183L8.00039 12.3155L12.2118 8.13243C12.6104 7.67747 12.8201 7.08949 12.7986 6.48716C12.7771 5.88483 12.526 5.31302 12.0961 4.88715Z" fill="#878586"/>
</svg>
