<svg width="22" height="22" viewBox="0 0 22 22" fill="none" xmlns="http://www.w3.org/2000/svg">
<path fill-rule="evenodd" clip-rule="evenodd" d="M18.4271 6.2863C17.7512 7.30257 17.0674 8.33059 17.0771 9.17792C17.0852 9.88931 17.3543 11.2937 17.6533 12.8535C18.1947 15.6788 18.8339 19.0142 18.197 19.6658C17.5391 20.3389 15.9629 17.7644 14.6839 15.6755C14.0411 14.6256 13.4734 13.6984 13.1351 13.3677C12.1237 12.3792 9.62067 15.2364 9.6321 16.2364C9.63448 16.4446 9.66088 16.7621 9.69222 17.139C9.81138 18.5722 10.0019 20.8637 9.21473 21.2686C8.6274 21.5707 7.99889 20.1188 7.37432 18.6761C6.94163 17.6766 6.51083 16.6814 6.09692 16.2769L19.3772 2.6889C20.2515 3.54342 19.3465 4.90399 18.4271 6.2863ZM15.8297 3.58453C14.8586 4.22466 13.8752 4.87289 13.0365 4.88248C12.3133 4.89074 10.9002 4.63742 9.34396 4.35843C6.59656 3.86591 3.40306 3.29342 2.77201 3.93907C2.08667 4.64026 4.78356 6.41003 6.83926 7.75904C7.74859 8.35577 8.53247 8.87017 8.84264 9.17333C9.854 10.1618 6.61123 12.7923 5.6113 12.8038C5.43765 12.8058 5.2034 12.7979 4.93227 12.7887C3.64217 12.7452 1.51716 12.6736 1.11346 13.5046C0.829809 14.0885 2.21398 14.5955 3.62284 15.1115C4.64051 15.4842 5.67105 15.8617 6.09521 16.2763L19.3758 2.68856C18.495 1.82766 17.1742 2.69833 15.8297 3.58453Z" fill="white"/>
</svg>
