<svg width="16" height="16" viewBox="0 0 16 16" fill="none" xmlns="http://www.w3.org/2000/svg">
<path d="M1.0025 7.72433C0.994507 7.63228 1.00574 7.53958 1.03547 7.4521C1.06521 7.36462 1.11281 7.28428 1.17524 7.21617C1.23767 7.14806 1.31358 7.09368 1.39815 7.05646C1.48272 7.01925 1.5741 7.00002 1.6665 7H2.9395C3.11631 7 3.28588 7.07024 3.4109 7.19526C3.53593 7.32028 3.60617 7.48985 3.60617 7.66666V14C3.60617 14.1768 3.53593 14.3464 3.4109 14.4714C3.28588 14.5964 3.11631 14.6667 2.9395 14.6667H2.2175C2.05064 14.6667 1.88984 14.6042 1.76684 14.4914C1.64384 14.3787 1.5676 14.2239 1.55317 14.0577L1.0025 7.72433ZM5.60617 7.45833C5.60617 7.17966 5.7795 6.93033 6.03117 6.81166C6.58083 6.55233 7.51717 6.03133 7.9395 5.327C8.48383 4.419 8.5865 2.77866 8.60316 2.403C8.6055 2.35033 8.60417 2.29766 8.61117 2.24566C8.7015 1.59466 9.95783 2.355 10.4395 3.159C10.7012 3.595 10.7345 4.168 10.7072 4.61566C10.6775 5.09433 10.5372 5.55666 10.3995 6.016L10.1062 6.995H13.7252C13.8282 6.99499 13.9298 7.01885 14.022 7.06471C14.1142 7.11056 14.1946 7.17717 14.2568 7.25929C14.3189 7.34142 14.3612 7.43683 14.3803 7.53805C14.3994 7.63927 14.3948 7.74353 14.3668 7.84266L12.5768 14.1813C12.5373 14.3211 12.4532 14.4442 12.3373 14.5318C12.2214 14.6194 12.0801 14.6668 11.9348 14.6667H6.27283C6.09602 14.6667 5.92645 14.5964 5.80143 14.4714C5.6764 14.3464 5.60617 14.1768 5.60617 14V7.45833Z" fill="#E02E30" stroke="#E02E30" stroke-width="1.33333" stroke-linecap="round" stroke-linejoin="round"/>
</svg>
