<svg width="20" height="20" viewBox="0 0 20 20" fill="none" xmlns="http://www.w3.org/2000/svg">
<g id="ic_krw">
<path id="Vector" d="M6.79 3.29202L6.59 5.82702C6.58 5.95202 6.68 6.06202 6.805 6.06202L9.35 6.04702C9.545 6.04202 9.645 5.81703 9.515 5.67703L8.92 5.03702C8.90585 5.02311 8.8948 5.00637 8.88757 4.98789C8.88033 4.96941 8.87708 4.94961 8.87803 4.92979C8.87897 4.90997 8.88409 4.89057 8.89304 4.87286C8.902 4.85515 8.91459 4.83953 8.93 4.82702C9.28 4.55202 9.735 4.38702 10.215 4.40702C11.115 4.44202 11.85 5.13703 12.035 5.97703C12.045 6.02203 12.085 6.05703 12.135 6.05703H13.35C13.415 6.05703 13.465 5.99703 13.455 5.93703C13.235 4.35703 11.915 3.06202 10.265 3.00202C9.39 2.97202 8.575 3.27702 7.96 3.80702C7.9 3.85702 7.815 3.85202 7.76 3.79702L7.17 3.16202C7.14114 3.13075 7.10381 3.10854 7.06256 3.0981C7.0213 3.08765 6.9779 3.08943 6.93764 3.1032C6.89737 3.11698 6.86198 3.14216 6.83577 3.17568C6.80956 3.20921 6.79366 3.24963 6.79 3.29202ZM13.166 16.77L13.366 14.235C13.368 14.2053 13.364 14.1755 13.3542 14.1474C13.3444 14.1193 13.3289 14.0934 13.3088 14.0715C13.2887 14.0495 13.2644 14.0318 13.2372 14.0196C13.2101 14.0073 13.1808 14.0006 13.151 14L10.606 14.015C10.411 14.02 10.311 14.245 10.441 14.385L11.036 15.025C11.096 15.085 11.091 15.185 11.026 15.235C10.676 15.51 10.221 15.675 9.741 15.655C8.841 15.62 8.106 14.925 7.921 14.085C7.91598 14.0623 7.90331 14.0419 7.88512 14.0274C7.86693 14.0128 7.8443 14.0049 7.821 14.005H6.606C6.546 14.005 6.491 14.06 6.501 14.125C6.721 15.705 8.041 17 9.691 17.06C10.566 17.09 11.381 16.785 11.996 16.255C12.056 16.205 12.141 16.21 12.196 16.265L12.786 16.9C12.916 17.04 13.151 16.96 13.166 16.77ZM5 6.00003C4.86739 6.00003 4.74021 6.0527 4.64645 6.14647C4.55268 6.24024 4.5 6.36742 4.5 6.50003V7.03003C3.896 7.12003 3.495 7.40252 3.259 7.77802C3 8.19152 3 8.63102 3 8.76202V8.76552C3 8.89803 3.001 9.33052 3.273 9.73352C3.398 9.91852 3.565 10.0775 3.779 10.1995C4.0735 10.3675 4.4565 10.4655 4.94 10.4655C5.4875 10.4655 5.6765 10.6705 5.762 10.815C5.873 11.003 5.88 11.22 5.88 11.2905C5.88 11.2885 5.8795 11.2902 5.8785 11.2955C5.872 11.3275 5.842 11.4755 5.7295 11.6195C5.6205 11.7585 5.407 11.9305 4.94 11.9305C4.509 11.9305 4.291 11.743 4.1635 11.5645C4.08392 11.4506 4.02565 11.3232 3.9915 11.1885V11.188L3.986 11.1625C3.9551 11.0365 3.87641 10.9274 3.76656 10.8583C3.65671 10.7893 3.52431 10.7656 3.39733 10.7923C3.27035 10.8191 3.15875 10.8941 3.0861 11.0017C3.01345 11.1092 2.98544 11.2407 3.008 11.3685V11.37L3.0085 11.373L3.01 11.3795C3.01457 11.4042 3.02008 11.4287 3.0265 11.453C3.09205 11.7015 3.20162 11.9362 3.35 12.146C3.62294 12.5328 4.03513 12.7987 4.5 12.888V13.5C4.5 13.6326 4.55268 13.7598 4.64645 13.8536C4.74021 13.9473 4.86739 14 5 14C5.13261 14 5.25979 13.9473 5.35355 13.8536C5.44732 13.7598 5.5 13.6326 5.5 13.5V12.8685C5.9635 12.76 6.295 12.5185 6.5165 12.236C6.7955 11.88 6.88 11.4845 6.88 11.29C6.88 11.1805 6.877 10.735 6.623 10.3055C6.343 9.83302 5.813 9.46502 4.94 9.46502C4.355 9.46502 4.1705 9.27552 4.102 9.17402C4.009 9.03602 4 8.86852 4 8.76502C4 8.65652 4.0075 8.46702 4.106 8.31002C4.178 8.19502 4.359 8.00002 4.93 8.00002C5.455 8.00002 5.657 8.21602 5.756 8.38503C5.82608 8.50642 5.86843 8.64183 5.88 8.78152C5.88378 8.91413 5.94008 9.03981 6.03652 9.1309C6.13296 9.222 6.26164 9.27105 6.39425 9.26727C6.52686 9.2635 6.65253 9.20719 6.74363 9.11075C6.83473 9.01431 6.88378 8.88563 6.88 8.75302V8.74802L6.8795 8.74052C6.87861 8.71329 6.87661 8.6861 6.8735 8.65902C6.84496 8.3843 6.75838 8.11877 6.6195 7.88002C6.4115 7.52502 6.0565 7.19802 5.5 7.06402V6.50003C5.5 6.36742 5.44732 6.24024 5.35355 6.14647C5.25979 6.0527 5.13261 6.00003 5 6.00003ZM13.981 7.44352C13.9513 7.38421 13.9101 7.3314 13.8598 7.28816C13.8096 7.24491 13.7512 7.21211 13.6881 7.19165C13.625 7.1712 13.5584 7.1635 13.4924 7.169C13.4263 7.17451 13.3619 7.19311 13.3031 7.22372C13.2442 7.25434 13.1921 7.29635 13.1496 7.34732C13.1072 7.39828 13.0753 7.45718 13.0559 7.52059C13.0364 7.58399 13.0298 7.65064 13.0363 7.71664C13.0429 7.78264 13.0625 7.84668 13.094 7.90503L14.4445 10.5H13.5C13.3674 10.5 13.2402 10.5527 13.1464 10.6465C13.0527 10.7402 13 10.8674 13 11C13 11.1326 13.0527 11.2598 13.1464 11.3536C13.2402 11.4473 13.3674 11.5 13.5 11.5H14.5V12H13.5C13.3674 12 13.2402 12.0527 13.1464 12.1465C13.0527 12.2402 13 12.3674 13 12.5C13 12.6326 13.0527 12.7598 13.1464 12.8536C13.2402 12.9473 13.3674 13 13.5 13H14.5V13.5C14.5 13.6326 14.5527 13.7598 14.6464 13.8536C14.7402 13.9473 14.8674 14 15 14C15.1326 14 15.2598 13.9473 15.3536 13.8536C15.4473 13.7598 15.5 13.6326 15.5 13.5V13H16.5C16.6326 13 16.7598 12.9473 16.8536 12.8536C16.9473 12.7598 17 12.6326 17 12.5C17 12.3674 16.9473 12.2402 16.8536 12.1465C16.7598 12.0527 16.6326 12 16.5 12H15.5V11.5H16.5C16.6326 11.5 16.7598 11.4473 16.8536 11.3536C16.9473 11.2598 17 11.1326 17 11C17 10.8674 16.9473 10.7402 16.8536 10.6465C16.7598 10.5527 16.6326 10.5 16.5 10.5H15.555L16.906 7.90503C16.9647 7.78766 16.975 7.6519 16.9345 7.52706C16.894 7.40222 16.8061 7.29829 16.6896 7.23772C16.5732 7.17714 16.4376 7.16477 16.3122 7.20327C16.1867 7.24178 16.0814 7.32807 16.019 7.44352L15 9.40102L13.981 7.44352Z" fill="#406CEA"/>
</g>
</svg>
