<svg width="20" height="20" viewBox="0 0 20 20" fill="none" xmlns="http://www.w3.org/2000/svg">
<path d="M15.3594 17C15.5624 17 15.7572 16.9157 15.9008 16.7657C16.0443 16.6157 16.125 16.4122 16.125 16.2V15.2032C16.1281 12.9584 13.0824 11.2 10 11.2C6.91759 11.2 3.875 12.9584 3.875 15.2032V16.2C3.875 16.4122 3.95566 16.6157 4.09925 16.7657C4.24283 16.9157 4.43757 17 4.64062 17H15.3594ZM12.7593 5.8832C12.7593 6.26183 12.6879 6.63675 12.5493 6.98655C12.4106 7.33636 12.2074 7.6542 11.9511 7.92193C11.6949 8.18966 11.3907 8.40203 11.0559 8.54693C10.7212 8.69182 10.3624 8.7664 10 8.7664C9.63764 8.7664 9.27883 8.69182 8.94406 8.54693C8.60928 8.40203 8.3051 8.18966 8.04887 7.92193C7.79264 7.6542 7.58939 7.33636 7.45073 6.98655C7.31206 6.63675 7.24069 6.26183 7.24069 5.8832C7.24069 5.11853 7.5314 4.38517 8.04887 3.84447C8.56634 3.30376 9.26818 3 10 3C10.7318 3 11.4337 3.30376 11.9511 3.84447C12.4686 4.38517 12.7593 5.11853 12.7593 5.8832Z" stroke="#878586" stroke-width="1.1" stroke-linecap="round" stroke-linejoin="round"/>
</svg>
