<svg width="20" height="20" viewBox="0 0 20 20" fill="none" xmlns="http://www.w3.org/2000/svg">
<g id="ic_people">
<path id="Vector" d="M10.125 6.125C10.125 6.9538 9.79576 7.74866 9.20971 8.33471C8.62366 8.92076 7.8288 9.25 7 9.25C6.1712 9.25 5.37634 8.92076 4.79029 8.33471C4.20424 7.74866 3.875 6.9538 3.875 6.125C3.875 5.2962 4.20424 4.50134 4.79029 3.91529C5.37634 3.32924 6.1712 3 7 3C7.8288 3 8.62366 3.32924 9.20971 3.91529C9.79576 4.50134 10.125 5.2962 10.125 6.125ZM14.5 9.25C15.163 9.25 15.7989 8.98661 16.2678 8.51777C16.7366 8.04893 17 7.41304 17 6.75C17 6.08696 16.7366 5.45107 16.2678 4.98223C15.7989 4.51339 15.163 4.25 14.5 4.25C13.837 4.25 13.2011 4.51339 12.7322 4.98223C12.2634 5.45107 12 6.08696 12 6.75C12 7.41304 12.2634 8.04893 12.7322 8.51777C13.2011 8.98661 13.837 9.25 14.5 9.25ZM13.25 12.4925V12.375C13.25 11.6988 13.0307 11.0409 12.625 10.5H16.7162C17.5612 10.5 18.2475 11.185 18.2475 12.0312C18.2475 12.0312 18.2475 14.875 14.4975 14.875C13.75 14.875 13.1513 14.7625 12.6725 14.5813C12.9699 14.0336 13.1596 13.4341 13.2312 12.815C13.2387 12.7375 13.2438 12.6713 13.2463 12.6163L13.25 12.4925ZM12 12.375C12 11.8777 11.8025 11.4008 11.4508 11.0492C11.0992 10.6975 10.6223 10.5 10.125 10.5H3.875C3.37772 10.5 2.90081 10.6975 2.54917 11.0492C2.19754 11.4008 2 11.8777 2 12.375V12.4688C2 12.4688 2 16.125 7 16.125C11.765 16.125 11.9888 12.805 12 12.4925V12.375Z" fill="#406CEA"/>
</g>
</svg>
