<svg width="20" height="20" viewBox="0 0 20 20" fill="none" xmlns="http://www.w3.org/2000/svg">
<path d="M4.375 6.66671C4.375 6.05892 4.61644 5.47602 5.04621 5.04625C5.47598 4.61648 6.05888 4.37504 6.66667 4.37504C7.27445 4.37504 7.85735 4.61648 8.28712 5.04625C8.71689 5.47602 8.95833 6.05892 8.95833 6.66671C8.95833 7.2745 8.71689 7.85739 8.28712 8.28716C7.85735 8.71693 7.27445 8.95837 6.66667 8.95837C6.05888 8.95837 5.47598 8.71693 5.04621 8.28716C4.61644 7.85739 4.375 7.2745 4.375 6.66671ZM6.66667 3.33337C5.78261 3.33337 4.93477 3.68456 4.30964 4.30968C3.68452 4.93481 3.33333 5.78265 3.33333 6.66671C3.33333 7.55076 3.68452 8.39861 4.30964 9.02373C4.93477 9.64885 5.78261 10 6.66667 10C7.55072 10 8.39857 9.64885 9.02369 9.02373C9.64881 8.39861 10 7.55076 10 6.66671C10 5.78265 9.64881 4.93481 9.02369 4.30968C8.39857 3.68456 7.55072 3.33337 6.66667 3.33337ZM12.7083 7.50004C12.7083 7.11327 12.862 6.74233 13.1355 6.46884C13.409 6.19535 13.7799 6.04171 14.1667 6.04171C14.5534 6.04171 14.9244 6.19535 15.1979 6.46884C15.4714 6.74233 15.625 7.11327 15.625 7.50004C15.625 7.88681 15.4714 8.25775 15.1979 8.53124C14.9244 8.80473 14.5534 8.95837 14.1667 8.95837C13.7799 8.95837 13.409 8.80473 13.1355 8.53124C12.862 8.25775 12.7083 7.88681 12.7083 7.50004ZM14.1667 5.00004C13.5036 5.00004 12.8677 5.26343 12.3989 5.73227C11.9301 6.20111 11.6667 6.837 11.6667 7.50004C11.6667 8.16308 11.9301 8.79897 12.3989 9.26781C12.8677 9.73665 13.5036 10 14.1667 10C14.8297 10 15.4656 9.73665 15.9344 9.26781C16.4033 8.79897 16.6667 8.16308 16.6667 7.50004C16.6667 6.837 16.4033 6.20111 15.9344 5.73227C15.4656 5.26343 14.8297 5.00004 14.1667 5.00004ZM14.1667 16.25C13.26 16.25 12.5325 16.1034 11.9517 15.8659L12.0292 15.7659C12.235 15.4946 12.3929 15.223 12.5138 14.9655C12.9388 15.1134 13.4788 15.2084 14.1663 15.2084C15.9479 15.2084 16.7383 14.5696 17.1092 14.0288C17.3204 13.718 17.4526 13.3605 17.4946 12.9871C17.497 12.9627 17.4986 12.9383 17.4996 12.9138V12.8125C17.4996 12.525 17.2663 12.2917 16.9788 12.2917H12.8596C12.7745 11.9064 12.5948 11.5484 12.3367 11.25H16.9792C17.3936 11.25 17.791 11.4147 18.084 11.7077C18.377 12.0007 18.5417 12.3981 18.5417 12.8125V12.9363L18.5404 12.9721C18.539 13.0016 18.5362 13.0403 18.5321 13.0884C18.473 13.6366 18.2796 14.1618 17.9692 14.6175C17.3754 15.4825 16.2388 16.25 14.1658 16.25M2.8125 11.25C2.3981 11.25 2.00067 11.4147 1.70765 11.7077C1.41462 12.0007 1.25 12.3981 1.25 12.8125V13.3555L1.25167 13.3959C1.25333 13.4292 1.25694 13.4734 1.2625 13.5284C1.27458 13.6375 1.2975 13.7875 1.3425 13.9659C1.46206 14.4355 1.67458 14.8764 1.9675 15.2625C2.69958 16.2275 4.09417 17.0834 6.66667 17.0834C9.23917 17.0834 10.6342 16.2275 11.3654 15.2625C11.6585 14.8764 11.8712 14.4353 11.9908 13.9655C12.0358 13.7875 12.0587 13.6375 12.0708 13.528C12.077 13.4706 12.0812 13.4131 12.0833 13.3555V12.8125C12.0833 12.6074 12.0429 12.4042 11.9644 12.2146C11.8859 12.025 11.7708 11.8528 11.6257 11.7077C11.4806 11.5626 11.3083 11.4475 11.1188 11.369C10.9292 11.2905 10.726 11.25 10.5208 11.25H2.8125ZM2.29208 13.3434L2.29167 13.33V12.8125C2.29167 12.525 2.525 12.2917 2.8125 12.2917H10.5208C10.8083 12.2917 11.0417 12.525 11.0417 12.8125V13.33L11.0413 13.3434C11.0322 13.4671 11.0121 13.5898 10.9812 13.71C10.8958 14.0445 10.7442 14.3585 10.5354 14.6334C10.0429 15.2834 8.98958 16.0417 6.66667 16.0417C4.34375 16.0417 3.29042 15.2834 2.79792 14.6334C2.58916 14.3586 2.43756 14.0448 2.35208 13.7105C2.32118 13.5901 2.3011 13.4673 2.29208 13.3434Z" fill="#1B3041"/>
</svg>
