<svg width="22" height="22" viewBox="0 0 22 22" fill="none" xmlns="http://www.w3.org/2000/svg">
<path d="M11.7317 7.02024C13.7317 6.02024 19.2317 4.52024 18.2317 2.52024C17.731 1.52021 16.2324 1.52028 14.7324 2.02028C13.2324 2.52028 12.7324 3.02024 10.7324 1.52024C8.73242 0.020244 6.23242 -0.479736 6.23242 0.520244C6.23242 1.22735 9.73242 4.02024 9.73242 4.52024C9.73242 5.02024 8.23242 5.52024 6.73242 5.52024C5.23242 5.52024 4.2317 3.52024 3.2317 4.02024C2.2317 4.52024 4.7317 7.52024 5.7317 8.52024C6.7317 9.52024 9.7317 8.02024 11.7317 7.02024Z" fill="white"/>
<path fill-rule="evenodd" clip-rule="evenodd" d="M1 12H9V22H1V12ZM3 14H7V15H3V14ZM7 16H3V19H7V16Z" fill="white"/>
<path fill-rule="evenodd" clip-rule="evenodd" d="M10 9H21V22H10V9ZM13 13H15V15H13V13ZM15 16H13V18H15V16ZM16 13H18V15H16V13ZM18 16H16V18H18V16Z" fill="white"/>
</svg>
