<svg width="20" height="20" viewBox="0 0 20 20" fill="none" xmlns="http://www.w3.org/2000/svg">
<path d="M2.99988 5.38625C2.99988 4.75335 3.2513 4.14636 3.69883 3.69883C4.14636 3.2513 4.75335 2.99988 5.38625 2.99988H14.6136C15.2465 2.99988 15.8535 3.2513 16.301 3.69883C16.7485 4.14636 16.9999 4.75335 16.9999 5.38625V14.6136C16.9999 15.2465 16.7485 15.8535 16.301 16.301C15.8535 16.7485 15.2465 16.9999 14.6136 16.9999H11.2243C11.5043 16.7263 11.7359 16.403 11.9052 16.0454H14.6136C14.9933 16.0454 15.3575 15.8945 15.626 15.626C15.8945 15.3575 16.0454 14.9933 16.0454 14.6136V5.38625C16.0454 5.00651 15.8945 4.64232 15.626 4.3738C15.3575 4.10528 14.9933 3.95443 14.6136 3.95443H5.38625C5.00651 3.95443 4.64232 4.10528 4.3738 4.3738C4.10528 4.64232 3.95443 5.00651 3.95443 5.38625V8.09399C3.59893 8.26349 3.27587 8.49394 2.99988 8.77491V5.38625ZM10.7954 16.0454C10.5734 16.3421 10.2853 16.583 9.95383 16.7487C9.62239 16.9144 9.25683 17.0004 8.88627 16.9999H5.38625C4.75335 16.9999 4.14636 16.7485 3.69883 16.301C3.2513 15.8535 2.99988 15.2465 2.99988 14.6136V11.1136C2.99988 10.3327 3.37533 9.63973 3.95443 9.20445C4.36707 8.89382 4.86976 8.72626 5.38625 8.72718H8.88627C9.51918 8.72718 10.1262 8.9786 10.5737 9.42613C11.0212 9.87366 11.2726 10.4806 11.2726 11.1136V14.6136C11.2726 15.1507 11.0951 15.6464 10.7954 16.0454ZM3.95443 11.1136V14.6136C3.95443 14.9933 4.10528 15.3575 4.3738 15.626C4.64232 15.8945 5.00651 16.0454 5.38625 16.0454H8.88627C9.26601 16.0454 9.6302 15.8945 9.89872 15.626C10.1672 15.3575 10.3181 14.9933 10.3181 14.6136V11.1136C10.3181 10.7338 10.1672 10.3696 9.89872 10.1011C9.6302 9.83258 9.26601 9.68173 8.88627 9.68173H5.38625C5.00651 9.68173 4.64232 9.83258 4.3738 10.1011C4.10528 10.3696 3.95443 10.7338 3.95443 11.1136Z" fill="#1B3041"/>
</svg>
