<svg width="20" height="20" viewBox="0 0 20 20" fill="none" xmlns="http://www.w3.org/2000/svg">
<g id="ic_room">
<path id="Vector" d="M2.5 17.5V15.8333H4.16667V2.5H15.8333V15.8333H17.5V17.5H2.5ZM12.5 15.8333H14.1667V4.16667H12.5V15.8333ZM9.16667 10.8333C9.40278 10.8333 9.60083 10.7533 9.76083 10.5933C9.92083 10.4333 10.0006 10.2356 10 10C9.99944 9.76444 9.91944 9.56667 9.76 9.40667C9.60056 9.24667 9.40278 9.16667 9.16667 9.16667C8.93056 9.16667 8.73278 9.24667 8.57333 9.40667C8.41389 9.56667 8.33389 9.76444 8.33333 10C8.33278 10.2356 8.41278 10.4336 8.57333 10.5942C8.73389 10.7547 8.93167 10.8344 9.16667 10.8333Z" fill="#406CEA"/>
</g>
</svg>
