<svg width="22" height="22" viewBox="0 0 22 22" fill="none" xmlns="http://www.w3.org/2000/svg">
<path fill-rule="evenodd" clip-rule="evenodd" d="M14.4913 9.56619C14.4913 10.213 14.3639 10.8534 14.1164 11.451C13.8689 12.0485 13.5061 12.5914 13.0488 13.0488C12.5914 13.5061 12.0485 13.8689 11.451 14.1164C10.8534 14.3639 10.213 14.4913 9.56619 14.4913C8.91942 14.4913 8.27897 14.3639 7.68143 14.1164C7.08388 13.8689 6.54094 13.5061 6.0836 13.0488C5.62626 12.5914 5.26348 12.0485 5.01597 11.451C4.76846 10.8534 4.64106 10.213 4.64106 9.56619C4.64106 8.25997 5.15996 7.00724 6.0836 6.0836C7.00724 5.15996 8.25997 4.64106 9.56619 4.64106C10.8724 4.64106 12.1251 5.15996 13.0488 6.0836C13.9724 7.00724 14.4913 8.25997 14.4913 9.56619ZM13.5939 14.754C12.2743 15.7784 10.614 16.2614 8.95088 16.1047C7.28775 15.948 5.74686 15.1634 4.64188 13.9106C3.53691 12.6578 2.95092 11.0309 3.00322 9.36125C3.05552 7.69158 3.74217 6.1046 4.92339 4.92339C6.1046 3.74217 7.69158 3.05552 9.36125 3.00322C11.0309 2.95092 12.6578 3.53691 13.9106 4.64188C15.1634 5.74686 15.948 7.28775 16.1047 8.95088C16.2614 10.614 15.7784 12.2743 14.754 13.5939L17.8076 16.6474C17.8882 16.7226 17.9529 16.8132 17.9978 16.9139C18.0426 17.0146 18.0668 17.1233 18.0687 17.2335C18.0707 17.3437 18.0504 17.4532 18.0091 17.5554C17.9678 17.6576 17.9064 17.7505 17.8284 17.8284C17.7505 17.9064 17.6576 17.9678 17.5554 18.0091C17.4532 18.0504 17.3437 18.0707 17.2335 18.0687C17.1233 18.0668 17.0146 18.0426 16.9139 17.9978C16.8132 17.9529 16.7226 17.8882 16.6474 17.8076L13.5939 14.754Z" fill="#878586"/>
</svg>
