<svg width="21" height="20" viewBox="0 0 21 20" fill="none" xmlns="http://www.w3.org/2000/svg">
<path fill-rule="evenodd" clip-rule="evenodd" d="M11.2 5C11.3715 5.00002 11.5369 5.05622 11.6651 5.15795C11.7932 5.25967 11.875 5.39984 11.8951 5.55187L11.9 5.625C11.9002 5.7843 11.9685 5.93752 12.091 6.05336C12.2135 6.16919 12.3809 6.2389 12.559 6.24823C12.7371 6.25757 12.9125 6.20583 13.0493 6.10358C13.1861 6.00134 13.274 5.85631 13.2951 5.69813L13.3 5.625C13.3 5.45924 13.3737 5.30027 13.505 5.18306C13.6363 5.06585 13.8143 5 14 5H15.4C15.957 5 16.4911 5.19754 16.8849 5.54917C17.2788 5.90081 17.5 6.37772 17.5 6.875V13.125C17.5 13.6223 17.2788 14.0992 16.8849 14.4508C16.4911 14.8025 15.957 15 15.4 15H14C13.8285 15 13.6631 14.9438 13.5349 14.8421C13.4068 14.7403 13.325 14.6002 13.3049 14.4481L13.3 14.375C13.2998 14.2157 13.2315 14.0625 13.109 13.9466C12.9865 13.8308 12.8191 13.7611 12.641 13.7518C12.4629 13.7424 12.2875 13.7942 12.1507 13.8964C12.0139 13.9987 11.926 14.1437 11.9049 14.3019L11.9 14.375C11.9 14.5408 11.8263 14.6997 11.695 14.8169C11.5637 14.9342 11.3857 15 11.2 15H5.6C5.04305 15 4.5089 14.8025 4.11508 14.4508C3.72125 14.0992 3.5 13.6223 3.5 13.125V6.875C3.5 6.37772 3.72125 5.90081 4.11508 5.54917C4.5089 5.19754 5.04305 5 5.6 5H11.2ZM12.6 10.625C12.4143 10.625 12.2363 10.6908 12.105 10.8081C11.9738 10.9253 11.9 11.0842 11.9 11.25V11.875C11.9 12.0408 11.9738 12.1997 12.105 12.3169C12.2363 12.4342 12.4143 12.5 12.6 12.5C12.7857 12.5 12.9637 12.4342 13.095 12.3169C13.2262 12.1997 13.3 12.0408 13.3 11.875V11.25C13.3 11.0842 13.2262 10.9253 13.095 10.8081C12.9637 10.6908 12.7857 10.625 12.6 10.625ZM12.6 7.5C12.4285 7.50002 12.2631 7.55622 12.1349 7.65795C12.0068 7.75967 11.925 7.89984 11.9049 8.05188L11.9 8.125V8.75C11.9002 8.9093 11.9685 9.06252 12.091 9.17836C12.2135 9.29419 12.3809 9.3639 12.559 9.37323C12.7371 9.38257 12.9125 9.33083 13.0493 9.22858C13.1861 9.12634 13.274 8.98131 13.2951 8.82312L13.3 8.75V8.125C13.3 7.95924 13.2262 7.80027 13.095 7.68306C12.9637 7.56585 12.7857 7.5 12.6 7.5Z" fill="#00612C"/>
</svg>
