<svg width="21" height="20" viewBox="0 0 21 20" fill="none" xmlns="http://www.w3.org/2000/svg">
<path fill-rule="evenodd" clip-rule="evenodd" d="M11.6639 5C11.8353 5.00002 12.0008 5.05622 12.1289 5.15795C12.2571 5.25967 12.3389 5.39984 12.359 5.55187L12.3639 5.625C12.3641 5.7843 12.4324 5.93752 12.5549 6.05336C12.6773 6.16919 12.8447 6.2389 13.0228 6.24823C13.201 6.25757 13.3763 6.20583 13.5131 6.10358C13.65 6.00134 13.7379 5.85631 13.759 5.69813L13.7639 5.625C13.7639 5.45924 13.8376 5.30027 13.9689 5.18306C14.1002 5.06585 14.2782 5 14.4639 5H15.8639C16.4208 5 16.955 5.19754 17.3488 5.54917C17.7426 5.90081 17.9639 6.37772 17.9639 6.875V13.125C17.9639 13.6223 17.7426 14.0992 17.3488 14.4508C16.955 14.8025 16.4208 15 15.8639 15H14.4639C14.2924 15 14.1269 14.9438 13.9988 14.8421C13.8707 14.7403 13.7888 14.6002 13.7688 14.4481L13.7639 14.375C13.7637 14.2157 13.6954 14.0625 13.5729 13.9466C13.4504 13.8308 13.283 13.7611 13.1049 13.7518C12.9268 13.7424 12.7514 13.7942 12.6146 13.8964C12.4778 13.9987 12.3898 14.1437 12.3688 14.3019L12.3639 14.375C12.3639 14.5408 12.2901 14.6997 12.1588 14.8169C12.0276 14.9342 11.8495 15 11.6639 15H6.06387C5.50691 15 4.97277 14.8025 4.57894 14.4508C4.18512 14.0992 3.96387 13.6223 3.96387 13.125V6.875C3.96387 6.37772 4.18512 5.90081 4.57894 5.54917C4.97277 5.19754 5.50691 5 6.06387 5H11.6639ZM13.0639 10.625C12.8782 10.625 12.7002 10.6908 12.5689 10.8081C12.4376 10.9253 12.3639 11.0842 12.3639 11.25V11.875C12.3639 12.0408 12.4376 12.1997 12.5689 12.3169C12.7002 12.4342 12.8782 12.5 13.0639 12.5C13.2495 12.5 13.4276 12.4342 13.5588 12.3169C13.6901 12.1997 13.7639 12.0408 13.7639 11.875V11.25C13.7639 11.0842 13.6901 10.9253 13.5588 10.8081C13.4276 10.6908 13.2495 10.625 13.0639 10.625ZM13.0639 7.5C12.8924 7.50002 12.7269 7.55622 12.5988 7.65795C12.4707 7.75967 12.3888 7.89984 12.3688 8.05188L12.3639 8.125V8.75C12.3641 8.9093 12.4324 9.06252 12.5549 9.17836C12.6773 9.29419 12.8447 9.3639 13.0228 9.37323C13.201 9.38257 13.3763 9.33083 13.5131 9.22858C13.65 9.12634 13.7379 8.98131 13.759 8.82312L13.7639 8.75V8.125C13.7639 7.95924 13.6901 7.80027 13.5588 7.68306C13.4276 7.56585 13.2495 7.5 13.0639 7.5Z" fill="#C63727"/>
</svg>
