<svg width="108" height="20" viewBox="0 0 108 20" fill="none" xmlns="http://www.w3.org/2000/svg">
<g clip-path="url(#clip0_1015_4639)">
<rect width="108" height="20" fill="#26252E"/>
<path d="M48 0H108V20H38L48 0Z" fill="#B68161"/>
<path d="M52 0L108 0V20H42L52 0Z" fill="url(#paint0_linear_1015_4639)"/>
<path d="M12.0516 5.90849C12.235 5.53687 12.765 5.53687 12.9484 5.90849L14.0001 8.03948C14.0729 8.18705 14.2137 8.28934 14.3765 8.313L16.7282 8.65472C17.1383 8.71432 17.3021 9.2183 17.0053 9.50757L15.3036 11.1663C15.1858 11.2812 15.132 11.4467 15.1598 11.6089L15.5616 13.9511C15.6316 14.3595 15.2029 14.671 14.8361 14.4782L12.7327 13.3723C12.587 13.2957 12.413 13.2957 12.2673 13.3723L10.1639 14.4782C9.7971 14.671 9.36839 14.3595 9.43844 13.9511L9.84016 11.6089C9.86798 11.4467 9.8142 11.2812 9.69636 11.1663L7.99466 9.50757C7.69791 9.2183 7.86166 8.71432 8.27177 8.65472L10.6235 8.313C10.7863 8.28934 10.9271 8.18705 10.9999 8.03948L12.0516 5.90849Z" fill="white"/>
<path d="M31.1759 14.508V6.276H34.0559C35.0159 6.276 35.7399 6.492 36.2279 6.924C36.7159 7.356 36.9599 7.984 36.9599 8.808C36.9599 9.648 36.7079 10.296 36.2039 10.752C35.7079 11.2 35.0239 11.424 34.1519 11.424H32.6519V14.508H31.1759ZM32.6519 10.32H33.8759C34.4199 10.32 34.8119 10.204 35.0519 9.972C35.2919 9.74 35.4119 9.38 35.4119 8.892C35.4119 8.356 35.2959 7.976 35.0639 7.752C34.8319 7.528 34.4439 7.416 33.8999 7.416H32.6519V10.32Z" fill="white"/>
<path d="M27.709 14.508V6.276H29.197V14.508H27.709Z" fill="white"/>
<path d="M22.1208 14.508L19.2168 6.276H20.7648L22.9248 12.636H22.9608L25.1088 6.276H26.4888L23.5848 14.508H22.1208Z" fill="white"/>
<path d="M93.4407 14.616C92.4087 14.616 91.6287 14.344 91.1007 13.8C90.5727 13.256 90.3087 12.48 90.3087 11.472V11.316C90.3087 10.316 90.5767 9.54401 91.1127 9.00001C91.6487 8.45601 92.3527 8.18401 93.2247 8.18401C94.1527 8.18401 94.8287 8.44001 95.2527 8.95201C95.6847 9.46401 95.9007 10.228 95.9007 11.244V11.82H91.9167C91.9727 12.396 92.1527 12.808 92.4567 13.056C92.7607 13.296 93.2087 13.416 93.8007 13.416C94.4247 13.416 95.0527 13.28 95.6847 13.008V14.04C95.1087 14.424 94.3607 14.616 93.4407 14.616ZM93.1887 9.3C92.8607 9.3 92.5767 9.41601 92.3367 9.64801C92.0967 9.88001 91.9567 10.264 91.9167 10.8H94.3527C94.3527 10.264 94.2567 9.88001 94.0647 9.64801C93.8727 9.41601 93.5807 9.3 93.1887 9.3Z" fill="#422921"/>
<path d="M84.2774 14.508V13.38L87.2534 9.49201V9.45601H84.4094V8.29201H89.1734V9.36001L86.1374 13.284V13.332H89.1254V14.508H84.2774Z" fill="#422921"/>
<path d="M77.4552 14.508V8.292H78.9672V8.844H79.0272C79.6272 8.396 80.3032 8.172 81.0552 8.172C81.6632 8.172 82.1152 8.308 82.4112 8.58C82.7152 8.852 82.8672 9.292 82.8672 9.9V14.508H81.2832V10.272C81.2832 9.968 81.2112 9.756 81.0672 9.636C80.9312 9.508 80.6752 9.444 80.2992 9.444C79.9552 9.444 79.5312 9.548 79.0272 9.756V14.508H77.4552Z" fill="#422921"/>
<path d="M72.9983 14.616C72.0303 14.616 71.2862 14.348 70.7662 13.812C70.2542 13.268 69.9982 12.5 69.9982 11.508V11.34C69.9982 10.348 70.2742 9.572 70.8262 9.012C71.3782 8.452 72.1062 8.172 73.0102 8.172C73.9702 8.172 74.7103 8.444 75.2303 8.988C75.7503 9.524 76.0102 10.292 76.0102 11.292V11.46C76.0102 12.46 75.7343 13.236 75.1823 13.788C74.6302 14.34 73.9023 14.616 72.9983 14.616ZM73.0223 13.464C73.9343 13.464 74.3903 12.836 74.3903 11.58V11.292C74.3903 10.564 74.2663 10.056 74.0183 9.768C73.7703 9.48 73.4262 9.336 72.9862 9.336C72.0742 9.336 71.6182 9.972 71.6182 11.244V11.508C71.6182 12.228 71.7422 12.736 71.9902 13.032C72.2382 13.32 72.5823 13.464 73.0223 13.464Z" fill="#422921"/>
<path d="M65.4865 14.508V8.29199H66.9985V9.02399H67.0585C67.2265 8.78399 67.4545 8.59199 67.7425 8.44799C68.0305 8.30399 68.3385 8.23199 68.6665 8.23199C68.8665 8.23199 68.9865 8.24799 69.0265 8.27999V9.67199C68.8505 9.63999 68.6865 9.62399 68.5345 9.62399C67.9825 9.62399 67.4905 9.75199 67.0585 10.008V14.508H65.4865Z" fill="#422921"/>
<path d="M57.84 14.508V6.276H60.924C62.756 6.276 63.672 6.968 63.672 8.352C63.672 9.264 63.216 9.868 62.304 10.164V10.2C63.44 10.392 64.008 11.044 64.008 12.156C64.008 12.86 63.764 13.428 63.276 13.86C62.788 14.292 62.064 14.508 61.104 14.508H57.84ZM59.532 13.296H60.804C61.772 13.296 62.256 12.872 62.256 12.024C62.256 11.216 61.752 10.812 60.744 10.812H59.532V13.296ZM59.532 9.756H60.588C61.516 9.756 61.98 9.372 61.98 8.604C61.98 8.196 61.868 7.908 61.644 7.74C61.428 7.564 61.092 7.476 60.636 7.476H59.532V9.756Z" fill="#422921"/>
</g>
<defs>
<linearGradient id="paint0_linear_1015_4639" x1="42" y1="10" x2="108" y2="10" gradientUnits="userSpaceOnUse">
<stop stop-color="#CC9F80"/>
<stop offset="1" stop-color="#C07D53"/>
</linearGradient>
<clipPath id="clip0_1015_4639">
<rect width="108" height="20" rx="2" fill="white"/>
</clipPath>
</defs>
</svg>
