<svg width="59" height="20" viewBox="0 0 59 20" fill="none" xmlns="http://www.w3.org/2000/svg">
<rect width="59" height="20" rx="1" fill="#FEF2F2"/>
<path d="M6.624 13.508V12.644L8.196 10.988C9.336 9.788 10.248 8.768 10.248 7.736C10.248 6.74 9.708 6.356 8.664 6.356C8.088 6.356 7.416 6.632 6.96 6.908L6.72 5.816C7.272 5.492 8.112 5.192 9.06 5.192C10.86 5.192 11.784 6.056 11.784 7.544C11.784 9.008 10.536 10.316 9.528 11.36L8.556 12.356H11.856V13.508H6.624ZM15.1339 13.628C14.1979 13.628 13.3219 13.388 12.7939 13.064L13.0579 11.936C13.5019 12.2 14.1259 12.428 14.7619 12.428C15.9019 12.428 16.5979 11.876 16.5979 10.88C16.5979 9.836 15.9499 9.404 14.8219 9.404C14.3059 9.404 13.5379 9.656 13.1539 9.848L13.4539 5.324H17.7499V6.476H14.5819L14.4259 8.48C14.7019 8.408 15.1459 8.336 15.4579 8.336C17.1019 8.336 18.1219 9.176 18.1219 10.916C18.1219 12.44 17.0059 13.628 15.1339 13.628ZM20.2464 14.024L25.8624 5.108H26.9544L21.3384 14.024H20.2464ZM20.8464 9.824C19.6224 9.824 18.8184 9.008 18.8184 7.628V7.472C18.8184 6.08 19.6224 5.204 20.8464 5.204C22.0584 5.204 22.8864 5.996 22.8864 7.376V7.556C22.8864 8.936 22.0704 9.824 20.8464 9.824ZM20.8464 8.972C21.4224 8.972 21.6864 8.588 21.6864 7.64V7.376C21.6864 6.464 21.3984 6.044 20.8464 6.044C20.3064 6.044 20.0184 6.452 20.0184 7.364V7.628C20.0184 8.588 20.2944 8.972 20.8464 8.972ZM26.4864 13.664C25.2624 13.664 24.4344 12.86 24.4344 11.468V11.3C24.4344 9.932 25.2624 9.056 26.4864 9.056C27.6984 9.056 28.5384 9.86 28.5384 11.228V11.408C28.5384 12.776 27.7104 13.664 26.4864 13.664ZM26.4864 12.8C27.0504 12.8 27.3264 12.44 27.3264 11.492V11.228C27.3264 10.304 27.0264 9.908 26.4864 9.908C25.9344 9.908 25.6584 10.292 25.6584 11.216V11.48C25.6584 12.428 25.9224 12.8 26.4864 12.8ZM38.5659 6.884H32.3619V5.804H38.5659V6.884ZM33.9819 5.36V4.304H37.1499V5.36H33.9819ZM42.3099 8.204H40.8099V10.328H39.4059V4.256H40.8099V7.052H42.3099V8.204ZM41.0739 14.924H33.7659V12.392H39.3939V11.888H33.7539V10.844H40.8099V13.34H35.1699V13.868H41.0739V14.924ZM38.0979 8.816C38.0979 9.812 37.0179 10.484 35.5659 10.484C34.0899 10.484 32.9979 9.812 32.9979 8.816C32.9979 7.832 34.0779 7.148 35.5659 7.148C37.0179 7.148 38.0979 7.832 38.0979 8.816ZM34.3899 8.816C34.3899 9.224 34.9299 9.476 35.5659 9.476C36.1779 9.476 36.7179 9.224 36.7179 8.816C36.7179 8.432 36.1779 8.168 35.5659 8.168C34.9179 8.168 34.3899 8.432 34.3899 8.816ZM51.6608 12.008H50.2688V4.256H51.6608V12.008ZM51.9008 14.66H44.4848V11.24H45.9008V13.556H51.9008V14.66ZM43.1648 7.688C43.1648 6.176 44.3048 5.048 46.0568 5.048C47.8208 5.048 48.9488 6.176 48.9488 7.688C48.9488 9.224 47.8208 10.316 46.0568 10.316C44.3048 10.316 43.1648 9.224 43.1648 7.688ZM44.6048 7.688C44.6048 8.54 45.1568 9.164 46.0568 9.164C46.9808 9.164 47.5208 8.54 47.5208 7.688C47.5208 6.872 46.9808 6.248 46.0568 6.248C45.1568 6.248 44.6048 6.872 44.6048 7.688Z" fill="#E02E30"/>
</svg>
